<mxfile host="app.diagrams.net" agent="Mozilla/5.0 (X11; Ubuntu; Linux x86_64; rv:136.0) Gecko/20100101 Firefox/136.0" version="26.2.2">
  <diagram name="Page-1" id="GQhkQCtYilufh4gHV34r">
    <mxGraphModel dx="728" dy="1225" grid="1" gridSize="10" guides="1" tooltips="1" connect="1" arrows="1" fold="1" page="1" pageScale="1" pageWidth="595" pageHeight="842" math="1" shadow="0">
      <root>
        <mxCell id="0" />
        <mxCell id="1" parent="0" />
        <mxCell id="9Us6M7-slf2VWFQs3xfb-2" value="" style="rounded=0;whiteSpace=wrap;html=1;" parent="1" vertex="1">
          <mxGeometry x="248" y="-790" width="99.71" height="230" as="geometry" />
        </mxCell>
        <mxCell id="9Us6M7-slf2VWFQs3xfb-3" value="$$11100001$$" style="rounded=1;whiteSpace=wrap;html=1;" parent="1" vertex="1">
          <mxGeometry x="257.14" y="-670" width="81.42" height="20" as="geometry" />
        </mxCell>
        <mxCell id="9Us6M7-slf2VWFQs3xfb-4" value="$$11001000$$" style="rounded=1;whiteSpace=wrap;html=1;" parent="1" vertex="1">
          <mxGeometry x="257.14" y="-690" width="81.42" height="20" as="geometry" />
        </mxCell>
        <mxCell id="9Us6M7-slf2VWFQs3xfb-5" value="$$10000000$$" style="rounded=1;whiteSpace=wrap;html=1;" parent="1" vertex="1">
          <mxGeometry x="257.14" y="-710" width="81.42" height="20" as="geometry" />
        </mxCell>
        <mxCell id="9Us6M7-slf2VWFQs3xfb-6" value="$$00111111$$" style="rounded=1;whiteSpace=wrap;html=1;" parent="1" vertex="1">
          <mxGeometry x="257.14" y="-730" width="81.42" height="20" as="geometry" />
        </mxCell>
        <mxCell id="9Us6M7-slf2VWFQs3xfb-7" value="$$01110000$$" style="rounded=1;whiteSpace=wrap;html=1;" parent="1" vertex="1">
          <mxGeometry x="257.14" y="-750" width="81.42" height="20" as="geometry" />
        </mxCell>
        <mxCell id="9Us6M7-slf2VWFQs3xfb-8" value="$$10001000$$" style="rounded=1;whiteSpace=wrap;html=1;" parent="1" vertex="1">
          <mxGeometry x="257.14" y="-770" width="81.42" height="20" as="geometry" />
        </mxCell>
        <mxCell id="9Us6M7-slf2VWFQs3xfb-9" value="$$00101001$$" style="rounded=1;whiteSpace=wrap;html=1;" parent="1" vertex="1">
          <mxGeometry x="257.14" y="-630" width="81.42" height="20" as="geometry" />
        </mxCell>
        <mxCell id="9Us6M7-slf2VWFQs3xfb-10" value="$$10101010$$" style="rounded=1;whiteSpace=wrap;html=1;" parent="1" vertex="1">
          <mxGeometry x="257" y="-650" width="81.42" height="20" as="geometry" />
        </mxCell>
        <mxCell id="9Us6M7-slf2VWFQs3xfb-11" value="$$11110000$$" style="rounded=1;whiteSpace=wrap;html=1;" parent="1" vertex="1">
          <mxGeometry x="257.14" y="-610" width="81.42" height="20" as="geometry" />
        </mxCell>
        <mxCell id="9Us6M7-slf2VWFQs3xfb-13" value="" style="endArrow=none;dashed=1;html=1;dashPattern=1 3;strokeWidth=2;rounded=0;" parent="1" edge="1">
          <mxGeometry width="50" height="50" relative="1" as="geometry">
            <mxPoint x="297.65999999999997" y="-584.2" as="sourcePoint" />
            <mxPoint x="297.65999999999997" y="-564" as="targetPoint" />
          </mxGeometry>
        </mxCell>
        <mxCell id="9Us6M7-slf2VWFQs3xfb-14" value="" style="ellipse;whiteSpace=wrap;html=1;aspect=fixed;fillColor=#F0F0F0;" parent="1" vertex="1">
          <mxGeometry x="158" y="-550.35" width="40" height="40" as="geometry" />
        </mxCell>
        <mxCell id="9Us6M7-slf2VWFQs3xfb-15" value="&lt;font style=&quot;font-size: 14px;&quot;&gt;$$\lt$$&lt;/font&gt;" style="text;html=1;align=center;verticalAlign=middle;whiteSpace=wrap;rounded=0;" parent="1" vertex="1">
          <mxGeometry x="172.23384615384612" y="-536.6962456140352" width="11.538461538461535" height="12.6978947368421" as="geometry" />
        </mxCell>
        <mxCell id="9Us6M7-slf2VWFQs3xfb-16" value="$$\text{max}$$" style="text;html=1;align=center;verticalAlign=middle;whiteSpace=wrap;rounded=0;" parent="1" vertex="1">
          <mxGeometry x="210" y="-630" width="30" height="20" as="geometry" />
        </mxCell>
        <mxCell id="9Us6M7-slf2VWFQs3xfb-17" value="" style="endArrow=open;html=1;rounded=0;strokeWidth=2;endFill=0;" parent="1" edge="1">
          <mxGeometry width="50" height="50" relative="1" as="geometry">
            <mxPoint x="78" y="-530.35" as="sourcePoint" />
            <mxPoint x="148" y="-530.59" as="targetPoint" />
          </mxGeometry>
        </mxCell>
        <mxCell id="9Us6M7-slf2VWFQs3xfb-18" value="" style="endArrow=open;html=1;rounded=0;endFill=0;strokeWidth=2;" parent="1" edge="1">
          <mxGeometry width="50" height="50" relative="1" as="geometry">
            <mxPoint x="234" y="-610" as="sourcePoint" />
            <mxPoint x="180" y="-560" as="targetPoint" />
            <Array as="points">
              <mxPoint x="180" y="-610" />
            </Array>
          </mxGeometry>
        </mxCell>
        <mxCell id="9Us6M7-slf2VWFQs3xfb-19" value="$$\textit{margin}$$" style="text;html=1;align=center;verticalAlign=middle;whiteSpace=wrap;rounded=0;" parent="1" vertex="1">
          <mxGeometry x="58" y="-554" width="60" height="30" as="geometry" />
        </mxCell>
        <mxCell id="9Us6M7-slf2VWFQs3xfb-20" value="$$\text{mem}$$" style="text;html=1;align=center;verticalAlign=middle;whiteSpace=wrap;rounded=0;" parent="1" vertex="1">
          <mxGeometry x="276.85" y="-790" width="42" height="20" as="geometry" />
        </mxCell>
      </root>
    </mxGraphModel>
  </diagram>
</mxfile>
